<svg width="16" height="16" viewBox="0 0 16 16" fill="none" xmlns="http://www.w3.org/2000/svg">
<path fill-rule="evenodd" clip-rule="evenodd" d="M11.0003 2.61426C10.3676 2.61426 9.76083 2.8656 9.31344 3.31299L8.65053 3.97589C8.64928 3.97713 8.64802 3.97837 8.64677 3.97962C8.64552 3.98087 8.64428 3.98212 8.64305 3.98338L2.31344 10.313C2.21967 10.4068 2.16699 10.5339 2.16699 10.6665V13.3332C2.16699 13.6094 2.39085 13.8332 2.66699 13.8332H5.33366C5.46627 13.8332 5.59344 13.7805 5.68721 13.6868L12.6872 6.68676C13.1346 6.23937 13.3859 5.63258 13.3859 4.99988C13.3859 4.36717 13.1346 3.76038 12.6872 3.31299C12.2398 2.8656 11.633 2.61426 11.0003 2.61426ZM9.00034 5.0403L3.16699 10.8736V12.8332H5.12655L10.9599 6.99986L9.00034 5.0403ZM11.667 6.29275L11.9801 5.97966C12.24 5.7198 12.3859 5.36736 12.3859 4.99988C12.3859 4.63239 12.24 4.27995 11.9801 4.0201C11.7203 3.76024 11.3678 3.61426 11.0003 3.61426C10.6328 3.61426 10.2804 3.76024 10.0205 4.0201L9.70745 4.33319L11.667 6.29275Z" fill="#30ABA9"/>
</svg>
