<svg width="24" height="24" viewBox="0 0 24 24" fill="none" xmlns="http://www.w3.org/2000/svg">
<path fill-rule="evenodd" clip-rule="evenodd" d="M5.25177 4.29226C5.33154 4.26429 5.41546 4.25 5.49999 4.25H18.5C18.5845 4.25 18.6684 4.26429 18.7482 4.29226C19.0002 4.38065 19.2287 4.52556 19.4161 4.71588C19.6034 4.90619 19.7448 5.13688 19.8292 5.39025C19.9137 5.64362 19.939 5.91297 19.9033 6.17765C19.8676 6.44234 19.7718 6.69533 19.6232 6.91726C19.6026 6.94799 19.5798 6.97715 19.5549 7.0045L14.75 12.29V19C14.75 19.2841 14.5895 19.5438 14.3354 19.6708C14.0813 19.7979 13.7772 19.7704 13.55 19.6L9.54999 16.6C9.36113 16.4584 9.24999 16.2361 9.24999 16V12.29L4.44503 7.0045C4.42016 6.97715 4.39734 6.94799 4.37677 6.91726C4.22818 6.69533 4.13236 6.44234 4.09665 6.17765C4.06094 5.91297 4.08628 5.64363 4.17074 5.39025C4.2552 5.13687 4.39653 4.90619 4.58391 4.71588C4.77129 4.52556 4.99974 4.38065 5.25177 4.29226ZM5.67282 5.75C5.66583 5.7557 5.65914 5.7618 5.65279 5.76825C5.62602 5.79544 5.60583 5.8284 5.59376 5.86459C5.5817 5.90079 5.57808 5.93927 5.58318 5.97708C5.58662 6.00257 5.59396 6.02731 5.60489 6.05044L10.5549 11.4955C10.6804 11.6335 10.75 11.8134 10.75 12V15.625L13.25 17.5V12C13.25 11.8134 13.3195 11.6335 13.445 11.4955L18.3951 6.05044C18.406 6.02731 18.4134 6.00257 18.4168 5.97708C18.4219 5.93927 18.4183 5.90079 18.4062 5.86459C18.3941 5.82839 18.374 5.79544 18.3472 5.76825C18.3408 5.7618 18.3341 5.7557 18.3272 5.75H5.67282Z" fill="#0F172A"/>
</svg>
