<svg width="343" height="37" viewBox="0 0 343 37" fill="none" xmlns="http://www.w3.org/2000/svg">
<path d="M0 25.0602V0H343V25.0602L332.944 34.6962C329.85 37.6613 324.968 37.6613 321.874 34.6962L317.353 30.364C314.259 27.3989 309.378 27.3989 306.283 30.364L301.762 34.6962C298.668 37.6613 293.787 37.6613 290.692 34.6962L286.171 30.364C283.077 27.3989 278.196 27.3989 275.101 30.364L270.58 34.6962C267.486 37.6613 262.605 37.6613 259.51 34.6962L254.989 30.364C251.895 27.3989 247.014 27.3989 243.92 30.364L239.399 34.6962C236.304 37.6613 231.423 37.6613 228.329 34.6962L223.808 30.364C220.713 27.3989 215.832 27.3989 212.738 30.364L208.217 34.6962C205.122 37.6613 200.241 37.6613 197.147 34.6962L192.626 30.364C189.532 27.3989 184.65 27.3989 181.556 30.364L177.035 34.6962C173.941 37.6613 169.059 37.6613 165.965 34.6962L161.444 30.364C158.35 27.3989 153.468 27.3989 150.374 30.364L145.853 34.6962C142.759 37.6613 137.878 37.6613 134.783 34.6962L130.262 30.364C127.168 27.3989 122.287 27.3989 119.192 30.364L114.671 34.6962C111.577 37.6613 106.696 37.6613 103.601 34.6962L99.0804 30.364C95.9861 27.3989 91.1048 27.3989 88.0105 30.364L83.4895 34.6962C80.3952 37.6613 75.5139 37.6613 72.4196 34.6962L67.8986 30.364C64.8043 27.3989 59.923 27.3989 56.8287 30.364L52.3077 34.6962C49.2134 37.6613 44.3321 37.6613 41.2378 34.6962L36.7168 30.364C33.6225 27.3989 28.7412 27.3989 25.6469 30.364L21.1259 34.6962C18.0315 37.6613 13.1503 37.6613 10.056 34.6962L0 25.0602Z" fill="white"/>
</svg>
