<svg width="24" height="24" viewBox="0 0 24 24" fill="none" xmlns="http://www.w3.org/2000/svg">
<path fill-rule="evenodd" clip-rule="evenodd" d="M5.2519 4.29226C5.33166 4.26429 5.41558 4.25 5.50011 4.25H18.5001C18.5846 4.25 18.6686 4.26429 18.7483 4.29226C19.0003 4.38065 19.2288 4.52556 19.4162 4.71588C19.6036 4.90619 19.7449 5.13688 19.8294 5.39025C19.9138 5.64362 19.9392 5.91297 19.9034 6.17765C19.8677 6.44234 19.7719 6.69533 19.6233 6.91726C19.6027 6.94799 19.5799 6.97715 19.5551 7.0045L14.7501 12.29V19C14.7501 19.2841 14.5896 19.5438 14.3355 19.6708C14.0814 19.7979 13.7774 19.7704 13.5501 19.6L9.55011 16.6C9.36125 16.4584 9.25011 16.2361 9.25011 16V12.29L4.44515 7.0045C4.42028 6.97715 4.39747 6.94799 4.3769 6.91726C4.22831 6.69533 4.13248 6.44234 4.09677 6.17765C4.06106 5.91297 4.0864 5.64363 4.17086 5.39025C4.25532 5.13687 4.39665 4.90619 4.58403 4.71588C4.77141 4.52556 4.99987 4.38065 5.2519 4.29226ZM5.67294 5.75C5.66595 5.7557 5.65927 5.7618 5.65291 5.76825C5.62614 5.79544 5.60595 5.8284 5.59388 5.86459C5.58182 5.90079 5.5782 5.93927 5.5833 5.97708C5.58674 6.00257 5.59408 6.02731 5.60501 6.05044L10.5551 11.4955C10.6806 11.6335 10.7501 11.8134 10.7501 12V15.625L13.2501 17.5V12C13.2501 11.8134 13.3196 11.6335 13.4452 11.4955L18.3952 6.05044C18.4061 6.02731 18.4135 6.00257 18.4169 5.97708C18.422 5.93927 18.4184 5.90079 18.4063 5.86459C18.3943 5.82839 18.3741 5.79544 18.3473 5.76825C18.3409 5.7618 18.3343 5.7557 18.3273 5.75H5.67294Z" fill="#0F172A"/>
</svg>
