<svg width="151" height="77" viewBox="0 0 151 77" fill="none" xmlns="http://www.w3.org/2000/svg">
<rect x="0.560488" y="0.560488" width="149.682" height="75.1212" stroke="#E2E8F0" stroke-width="1.12121"/>
<path d="M19.9014 41.9364V41.4866L21.6249 41.3742C22.0995 41.3492 22.4118 41.1993 22.5616 40.9244C22.7115 40.6495 22.7865 40.1248 22.7865 39.3502V16.7866C22.7865 16.1619 22.699 15.7371 22.5242 15.5122C22.3743 15.2623 22.0246 15.1249 21.4751 15.0999L19.9014 15.025V14.5752H38.0737L39.1228 21.2843L38.6357 21.4342C38.1361 20.1099 37.6491 19.0479 37.1744 18.2483C36.7248 17.4238 36.2377 16.7866 35.7132 16.3368C35.1886 15.887 34.5891 15.5872 33.9147 15.4373C33.2652 15.2623 32.4784 15.1749 31.5541 15.1749H29.0437V27.6186H31.8539C32.5283 27.6186 33.0529 27.5312 33.4276 27.3562C33.8023 27.1563 34.102 26.794 34.3268 26.2693C34.5766 25.7446 34.8264 24.9949 35.0762 24.0204L35.6008 23.9455V32.0039L35.0762 32.0789C34.8764 31.0794 34.6516 30.3048 34.4018 29.755C34.152 29.2053 33.8272 28.818 33.4276 28.5931C33.0529 28.3432 32.5408 28.2183 31.8914 28.2183H29.0437V41.3367H32.5283C33.4276 41.3367 34.1894 41.2492 34.8139 41.0743C35.4384 40.8744 35.9879 40.5496 36.4625 40.0998C36.9621 39.6251 37.4242 38.9754 37.8489 38.1508C38.2985 37.3012 38.7606 36.2268 39.2352 34.9274H39.7223L39.0854 41.9364H19.9014Z" fill="black"/>
<path d="M43.7028 41.9364V41.4866L45.4263 41.3742C45.901 41.3492 46.2132 41.1993 46.3631 40.9244C46.5129 40.6495 46.5879 40.1248 46.5879 39.3502V16.7866C46.5879 16.1619 46.5005 15.7371 46.3256 15.5122C46.1757 15.2623 45.826 15.1249 45.2765 15.0999L43.7028 15.025V14.5752H56.1799V15.025L54.2315 15.0999C53.7069 15.1249 53.3447 15.2623 53.1449 15.5122C52.9451 15.7621 52.8452 16.2369 52.8452 16.9365V41.3367H56.3297C57.279 41.3367 58.1033 41.2118 58.8027 40.9619C59.5271 40.687 60.164 40.2622 60.7136 39.6875C61.2631 39.1128 61.7627 38.3507 62.2123 37.4012C62.662 36.4517 63.0991 35.2772 63.5237 33.878H64.0483L63.1116 41.9364H43.7028Z" fill="black"/>
<path d="M67.6506 41.9364V41.4866L69.3741 41.3742C69.8487 41.3492 70.161 41.1993 70.3108 40.9244C70.4607 40.6495 70.5357 40.1248 70.5357 39.3502V16.7866C70.5357 16.1619 70.4482 15.7371 70.2734 15.5122C70.1235 15.2623 69.7738 15.1249 69.2243 15.0999L67.6506 15.025V14.5752H79.678V15.025L77.9545 15.0999C77.5298 15.1249 77.2301 15.2748 77.0552 15.5497C76.8804 15.7996 76.7929 16.2743 76.7929 16.974V39.5001C76.7929 40.2248 76.8804 40.712 77.0552 40.9619C77.2301 41.1868 77.5548 41.3242 78.0294 41.3742L79.678 41.4866V41.9364H67.6506Z" fill="black"/>
<path d="M88.7077 41.9364V41.4866L90.8434 41.3742C91.343 41.3492 91.6927 41.1993 91.8925 40.9244C92.1173 40.6246 92.2297 40.1123 92.2297 39.3877V15.1749H90.4313C89.6069 15.1749 88.8701 15.3123 88.2206 15.5872C87.5711 15.862 86.9841 16.2868 86.4596 16.8615C85.96 17.4363 85.4854 18.1984 85.0358 19.1479C84.5861 20.0724 84.124 21.2093 83.6494 22.5587L83.1623 22.4087L84.0616 14.5752H106.618L107.517 22.4087L106.992 22.5587C106.543 21.2093 106.093 20.0724 105.644 19.1479C105.194 18.1984 104.707 17.4363 104.182 16.8615C103.683 16.2868 103.108 15.862 102.459 15.5872C101.834 15.3123 101.11 15.1749 100.286 15.1749H98.487V39.5376C98.487 40.2372 98.5994 40.712 98.8242 40.9619C99.074 41.2118 99.4487 41.3492 99.9483 41.3742L102.009 41.4866V41.9364H88.7077Z" fill="black"/>
<path d="M111.009 41.9364V41.4866L112.732 41.3742C113.207 41.3492 113.519 41.1993 113.669 40.9244C113.819 40.6495 113.894 40.1248 113.894 39.3502V16.7866C113.894 16.1619 113.807 15.7371 113.632 15.5122C113.482 15.2623 113.132 15.1249 112.583 15.0999L111.009 15.025V14.5752H129.181L130.23 21.2843L129.743 21.4342C129.244 20.1099 128.757 19.0479 128.282 18.2483C127.832 17.4238 127.345 16.7866 126.821 16.3368C126.296 15.887 125.697 15.5872 125.022 15.4373C124.373 15.2623 123.586 15.1749 122.662 15.1749H120.151V27.6186H122.961C123.636 27.6186 124.16 27.5312 124.535 27.3562C124.91 27.1563 125.21 26.794 125.434 26.2693C125.684 25.7446 125.934 24.9949 126.184 24.0204L126.708 23.9455V32.0039L126.184 32.0789C125.984 31.0794 125.759 30.3048 125.509 29.755C125.259 29.2053 124.935 28.818 124.535 28.5931C124.16 28.3432 123.648 28.2183 122.999 28.2183H120.151V41.3367H123.636C124.535 41.3367 125.297 41.2492 125.921 41.0743C126.546 40.8744 127.095 40.5496 127.57 40.0998C128.07 39.6251 128.532 38.9754 128.956 38.1508C129.406 37.3012 129.868 36.2268 130.343 34.9274H130.83L130.193 41.9364H111.009Z" fill="black"/>
<path d="M23.9978 59.2124V58.6501L24.5599 58.5862C24.7217 58.5606 24.8282 58.5053 24.8793 58.4201C24.9304 58.3349 24.9559 58.1602 24.9559 57.8961V51.3018C24.9559 51.0803 24.9261 50.9312 24.8665 50.8545C24.8154 50.7693 24.7004 50.7182 24.5216 50.7011L23.9978 50.65V50.0877H27.8688C28.6779 50.0877 29.3294 50.1729 29.8234 50.3433C30.3174 50.5052 30.6794 50.7437 30.9093 51.059C31.1393 51.3742 31.2543 51.7491 31.2543 52.1836C31.2543 52.584 31.1691 52.9291 30.9987 53.2187C30.8284 53.4999 30.5942 53.7342 30.2961 53.9216C29.998 54.1005 29.6531 54.2326 29.2613 54.3178V54.3817C30.0534 54.4498 30.6708 54.6671 31.1137 55.0334C31.5566 55.3998 31.7781 55.9152 31.7781 56.5798C31.7781 57.1421 31.6333 57.6192 31.3437 58.0111C31.0626 58.403 30.6368 58.7012 30.0661 58.9057C29.504 59.1102 28.7971 59.2124 27.9454 59.2124H23.9978ZM27.7793 58.5351C28.1711 58.5351 28.4948 58.4627 28.7503 58.3178C29.0143 58.173 29.2144 57.96 29.3507 57.6788C29.487 57.3892 29.5551 57.0313 29.5551 56.6054C29.5551 56.1453 29.4827 55.7832 29.3379 55.5191C29.1931 55.255 28.9845 55.0675 28.7119 54.9568C28.4479 54.8375 28.1285 54.7779 27.7538 54.7779C27.4727 54.7779 27.2513 54.7949 27.0895 54.829V58.484C27.1831 58.501 27.2853 58.5138 27.3961 58.5223C27.5153 58.5308 27.6431 58.5351 27.7793 58.5351ZM27.6005 54.1389C27.9071 54.1389 28.1711 54.0792 28.3926 53.96C28.614 53.8322 28.7843 53.6405 28.9036 53.3849C29.0313 53.1208 29.0952 52.7927 29.0952 52.4008C29.0952 52.0004 29.0441 51.6809 28.9419 51.4424C28.8397 51.1953 28.6779 51.0164 28.4564 50.9056C28.235 50.7949 27.9539 50.7395 27.6132 50.7395H27.0895V54.1133C27.1576 54.1218 27.2342 54.1304 27.3194 54.1389C27.4046 54.1389 27.4983 54.1389 27.6005 54.1389Z" fill="#7200B7"/>
<path d="M42.449 59.3913C41.5291 59.3913 40.7413 59.1996 40.0855 58.8162C39.4382 58.4328 38.9442 57.8961 38.6035 57.206C38.2629 56.5159 38.0925 55.7193 38.0925 54.8162C38.0925 53.7597 38.2799 52.8694 38.6547 52.1452C39.0294 51.4125 39.5575 50.8588 40.2388 50.4839C40.9202 50.1005 41.7208 49.9088 42.6406 49.9088C43.4923 49.9088 44.2375 50.0877 44.8763 50.4455C45.5151 50.7949 46.0133 51.306 46.371 51.9791C46.7288 52.6522 46.9076 53.4658 46.9076 54.42C46.9076 55.1442 46.8097 55.813 46.6138 56.4264C46.4179 57.0313 46.1283 57.5553 45.745 57.9983C45.3703 58.4414 44.9061 58.7864 44.3525 59.0335C43.7989 59.272 43.1644 59.3913 42.449 59.3913ZM42.6278 58.6118C42.9685 58.6118 43.2623 58.5436 43.5093 58.4073C43.7648 58.271 43.9735 58.0537 44.1353 57.7555C44.3057 57.4488 44.4334 57.0441 44.5186 56.5415C44.6038 56.0388 44.6463 55.4211 44.6463 54.6884C44.6463 53.9813 44.5952 53.3721 44.493 52.8609C44.3994 52.3497 44.2588 51.9322 44.0715 51.6085C43.8841 51.2847 43.6541 51.0462 43.3816 50.8928C43.109 50.7395 42.7939 50.6628 42.4362 50.6628C42.0955 50.6628 41.7932 50.731 41.5291 50.8673C41.2736 51.0036 41.0564 51.2251 40.8776 51.5318C40.6987 51.8385 40.5625 52.239 40.4688 52.7331C40.3836 53.2273 40.341 53.8279 40.341 54.535C40.341 55.2422 40.3921 55.8556 40.4943 56.3753C40.5965 56.8865 40.7456 57.3082 40.9415 57.6405C41.1374 57.9728 41.3758 58.2199 41.6569 58.3817C41.9465 58.5351 42.2701 58.6118 42.6278 58.6118Z" fill="#7200B7"/>
<path d="M57.6966 59.3913C57.0578 59.3913 56.5085 59.3189 56.0486 59.1741C55.5972 59.0207 55.2267 58.7992 54.9371 58.5095C54.656 58.2113 54.4474 57.8535 54.3111 57.436C54.1748 57.0186 54.1067 56.5415 54.1067 56.0047V51.3273C54.1067 51.1058 54.0769 50.9525 54.0173 50.8673C53.9662 50.7736 53.8512 50.7182 53.6723 50.7011L53.1358 50.65V50.0877H57.1728V50.65L56.5979 50.7011C56.4531 50.7267 56.3509 50.7863 56.2913 50.88C56.2402 50.9652 56.2146 51.1186 56.2146 51.3401V56.043C56.2146 56.5628 56.2785 57.0015 56.4063 57.3594C56.5425 57.7172 56.7555 57.9898 57.045 58.1773C57.3431 58.3562 57.7307 58.4456 58.2076 58.4456C58.6846 58.4456 59.0721 58.3519 59.3702 58.1645C59.6768 57.9685 59.9025 57.6874 60.0473 57.321C60.2006 56.9547 60.2772 56.5159 60.2772 56.0047V51.3273C60.2772 51.0973 60.2474 50.9397 60.1878 50.8545C60.1367 50.7693 60.0217 50.7182 59.8429 50.7011L59.3446 50.65V50.0877H62.0275V50.65L61.5165 50.7011C61.3546 50.7267 61.2439 50.7821 61.1843 50.8673C61.1332 50.9525 61.1076 51.1186 61.1076 51.3657V55.928C61.1076 56.7204 60.9714 57.3764 60.6988 57.8961C60.4348 58.4073 60.0473 58.7864 59.5363 59.0335C59.0252 59.272 58.412 59.3913 57.6966 59.3913Z" fill="#7200B7"/>
<path d="M70.0831 59.2124V58.6501L70.9007 58.5734C71.0711 58.5564 71.1861 58.4967 71.2457 58.3945C71.3138 58.2838 71.3479 58.1219 71.3479 57.9089V50.7523H70.8113C70.5388 50.7523 70.3046 50.7863 70.1087 50.8545C69.9128 50.9227 69.7382 51.0419 69.5849 51.2123C69.4401 51.3742 69.3038 51.5957 69.1761 51.8769C69.0568 52.158 68.9333 52.5116 68.8056 52.9376L68.0774 52.7842L68.4606 50.0877H76.3559L76.7136 52.7842L75.9854 52.9376C75.8662 52.5116 75.7427 52.158 75.6149 51.8769C75.4871 51.5957 75.3466 51.3742 75.1933 51.2123C75.0485 51.0419 74.8782 50.9227 74.6823 50.8545C74.4949 50.7863 74.2735 50.7523 74.018 50.7523H73.4686V57.9472C73.4686 58.1517 73.4984 58.3008 73.5581 58.3945C73.6262 58.4882 73.7539 58.5479 73.9413 58.5734L74.7334 58.6501V59.2124H70.0831Z" fill="#7200B7"/>
<path d="M82.9178 59.2124V58.6501L83.4927 58.5862C83.663 58.5606 83.7695 58.5053 83.8121 58.4201C83.8632 58.3263 83.8887 58.1602 83.8887 57.9217V51.3018C83.8887 51.0803 83.8589 50.9312 83.7993 50.8545C83.7482 50.7693 83.6332 50.7182 83.4544 50.7011L82.9178 50.65V50.0877H86.9932V50.65L86.4055 50.7011C86.2607 50.7267 86.1585 50.7821 86.0989 50.8673C86.0478 50.9525 86.0222 51.1143 86.0222 51.3529V57.9728C86.0222 58.1943 86.0478 58.3476 86.0989 58.4328C86.15 58.5095 86.2607 58.5606 86.431 58.5862L86.9932 58.6501V59.2124H82.9178Z" fill="#7200B7"/>
<path d="M101.851 61.6661C101.468 61.6661 101.118 61.5767 100.803 61.3977C100.497 61.2188 100.203 60.9462 99.9218 60.5798C99.6493 60.222 99.3682 59.7747 99.0787 59.238C98.8828 59.2891 98.6784 59.3274 98.4654 59.353C98.261 59.3785 98.0481 59.3913 97.8267 59.3913C96.9068 59.3913 96.119 59.2039 95.4632 58.829C94.8074 58.4456 94.3049 57.9089 93.9557 57.2188C93.6065 56.5287 93.4319 55.7278 93.4319 54.8162C93.4319 53.7597 93.6193 52.8694 93.994 52.1452C94.3773 51.4125 94.9139 50.8588 95.6037 50.4839C96.2936 50.1005 97.0985 49.9088 98.0183 49.9088C98.87 49.9088 99.6152 50.0877 100.254 50.4455C100.901 50.7949 101.404 51.306 101.762 51.9791C102.128 52.6522 102.311 53.4658 102.311 54.42C102.311 55.3402 102.145 56.1666 101.813 56.8993C101.489 57.6235 101.025 58.1986 100.42 58.6245C100.676 58.9824 100.906 59.2763 101.11 59.5063C101.323 59.7364 101.536 59.9068 101.749 60.0175C101.962 60.1368 102.183 60.1964 102.413 60.1964C102.694 60.1964 102.945 60.1453 103.167 60.0431C103.397 59.9409 103.631 59.7705 103.869 59.5319L104.138 59.877C103.95 60.2859 103.737 60.6224 103.499 60.8866C103.26 61.1507 103.001 61.3466 102.72 61.4744C102.447 61.6022 102.158 61.6661 101.851 61.6661ZM97.98 58.6501C98.1162 58.6501 98.244 58.6331 98.3632 58.599C98.4825 58.5649 98.5847 58.5138 98.6698 58.4456C98.4995 58.1048 98.3419 57.8109 98.1972 57.5638C98.0609 57.3082 97.9246 57.0952 97.7883 56.9248C97.6606 56.7544 97.5286 56.6267 97.3923 56.5415C97.256 56.4563 97.107 56.4137 96.9452 56.4137C96.7578 56.4137 96.5874 56.452 96.4341 56.5287C96.2893 56.6053 96.1488 56.7204 96.0125 56.8737C96.1318 57.2827 96.2851 57.6192 96.4725 57.8833C96.6598 58.1389 96.8813 58.3306 97.1368 58.4584C97.3923 58.5862 97.6733 58.6501 97.98 58.6501ZM99.5513 57.4233C99.7217 57.1421 99.8494 56.7715 99.9346 56.3114C100.028 55.8514 100.075 55.3103 100.075 54.6884C100.075 53.9813 100.024 53.3721 99.9218 52.8609C99.8196 52.3497 99.6706 51.9322 99.4747 51.6085C99.2873 51.2847 99.0531 51.0462 98.7721 50.8928C98.491 50.7395 98.1716 50.6628 97.8139 50.6628C97.4732 50.6628 97.1709 50.731 96.9068 50.8673C96.6428 51.0036 96.4171 51.2251 96.2297 51.5318C96.0509 51.8385 95.9103 52.239 95.8081 52.7331C95.7144 53.2273 95.6676 53.8279 95.6676 54.535C95.6676 54.8929 95.6846 55.2166 95.7187 55.5063C95.7528 55.7875 95.8081 56.0601 95.8848 56.3242C96.0636 56.1197 96.2638 55.9621 96.4852 55.8514C96.7067 55.7406 96.9579 55.6852 97.239 55.6852C97.5456 55.6852 97.8224 55.7534 98.0694 55.8897C98.3249 56.026 98.5719 56.222 98.8104 56.4776C99.0488 56.7331 99.2958 57.0484 99.5513 57.4233Z" fill="#7200B7"/>
<path d="M113.111 59.3913C112.472 59.3913 111.923 59.3189 111.463 59.1741C111.011 59.0207 110.641 58.7992 110.351 58.5095C110.07 58.2113 109.862 57.8535 109.725 57.436C109.589 57.0186 109.521 56.5415 109.521 56.0047V51.3273C109.521 51.1058 109.491 50.9525 109.431 50.8673C109.38 50.7736 109.265 50.7182 109.087 50.7011L108.55 50.65V50.0877H112.587V50.65L112.012 50.7011C111.867 50.7267 111.765 50.7863 111.706 50.88C111.654 50.9652 111.629 51.1186 111.629 51.3401V56.043C111.629 56.5628 111.693 57.0015 111.82 57.3594C111.957 57.7172 112.17 57.9898 112.459 58.1773C112.757 58.3562 113.145 58.4456 113.622 58.4456C114.099 58.4456 114.486 58.3519 114.784 58.1645C115.091 57.9685 115.317 57.6874 115.462 57.321C115.615 56.9547 115.691 56.5159 115.691 56.0047V51.3273C115.691 51.0973 115.662 50.9397 115.602 50.8545C115.551 50.7693 115.436 50.7182 115.257 50.7011L114.759 50.65V50.0877H117.442V50.65L116.931 50.7011C116.769 50.7267 116.658 50.7821 116.599 50.8673C116.547 50.9525 116.522 51.1186 116.522 51.3657V55.928C116.522 56.7204 116.386 57.3764 116.113 57.8961C115.849 58.4073 115.462 58.7864 114.95 59.0335C114.439 59.272 113.826 59.3913 113.111 59.3913Z" fill="#7200B7"/>
<path d="M123.811 59.2124V58.6501L124.373 58.5862C124.535 58.5606 124.641 58.5053 124.692 58.4201C124.744 58.3349 124.769 58.1645 124.769 57.9089V51.3018C124.769 51.0803 124.739 50.9312 124.68 50.8545C124.629 50.7693 124.514 50.7182 124.335 50.7011L123.811 50.65V50.0877H130.288L130.684 52.4136L129.994 52.5414C129.867 52.1665 129.739 51.8641 129.611 51.6341C129.492 51.3955 129.36 51.2123 129.215 51.0845C129.07 50.9567 128.896 50.8673 128.691 50.8161C128.495 50.765 128.253 50.7395 127.963 50.7395H126.903V54.2283H127.733C127.954 54.2283 128.121 54.2028 128.231 54.1517C128.351 54.1005 128.444 53.9983 128.512 53.8449C128.589 53.6831 128.661 53.453 128.73 53.1548L129.279 53.1037V55.9664L128.73 56.0558C128.67 55.7406 128.606 55.502 128.538 55.3402C128.47 55.1783 128.372 55.0675 128.244 55.0079C128.125 54.9397 127.954 54.9057 127.733 54.9057H126.903V58.5479H128.231C128.521 58.5479 128.764 58.518 128.959 58.4584C129.164 58.3988 129.334 58.3008 129.471 58.1645C129.607 58.0282 129.73 57.8365 129.841 57.5894C129.96 57.3423 130.079 57.0271 130.199 56.6437H130.901L130.62 59.2124H123.811Z" fill="#7200B7"/>
</svg>
