<svg width="40" height="40" viewBox="0 0 40 40" fill="none" xmlns="http://www.w3.org/2000/svg">
<path fill-rule="evenodd" clip-rule="evenodd" d="M20 11.25C19.0335 11.25 18.25 12.0335 18.25 13C18.25 13.9665 19.0335 14.75 20 14.75C20.9665 14.75 21.75 13.9665 21.75 13C21.75 12.0335 20.9665 11.25 20 11.25Z" fill="#0F172A"/>
<path fill-rule="evenodd" clip-rule="evenodd" d="M18.25 20C18.25 19.0335 19.0335 18.25 20 18.25C20.9665 18.25 21.75 19.0335 21.75 20C21.75 20.9665 20.9665 21.75 20 21.75C19.0335 21.75 18.25 20.9665 18.25 20Z" fill="#0F172A"/>
<path fill-rule="evenodd" clip-rule="evenodd" d="M18.25 27C18.25 26.0335 19.0335 25.25 20 25.25C20.9665 25.25 21.75 26.0335 21.75 27C21.75 27.9665 20.9665 28.75 20 28.75C19.0335 28.75 18.25 27.9665 18.25 27Z" fill="#0F172A"/>
</svg>
