<svg width="24" height="24" viewBox="0 0 24 24" fill="none" xmlns="http://www.w3.org/2000/svg">
<path fill-rule="evenodd" clip-rule="evenodd" d="M12 1.25C9.92893 1.25 8.25 2.92893 8.25 5V10C8.25 12.0711 9.92893 13.75 12 13.75C14.0711 13.75 15.75 12.0711 15.75 10V5C15.75 2.92893 14.0711 1.25 12 1.25ZM9.75 5C9.75 3.75736 10.7574 2.75 12 2.75C13.2426 2.75 14.25 3.75736 14.25 5V10C14.25 11.2426 13.2426 12.25 12 12.25C10.7574 12.25 9.75 11.2426 9.75 10V5Z" fill="#30ABA9"/>
<path d="M5.75 10C5.75 9.58579 5.41421 9.25 5 9.25C4.58579 9.25 4.25 9.58579 4.25 10C4.25 12.0554 5.06652 14.0267 6.51992 15.4801C7.79547 16.7556 9.46988 17.5406 11.25 17.7136V20.25H8C7.58579 20.25 7.25 20.5858 7.25 21C7.25 21.4142 7.58579 21.75 8 21.75H16C16.4142 21.75 16.75 21.4142 16.75 21C16.75 20.5858 16.4142 20.25 16 20.25H12.75V17.7136C14.5301 17.5406 16.2045 16.7556 17.4801 15.4801C18.9335 14.0267 19.75 12.0554 19.75 10C19.75 9.58579 19.4142 9.25 19 9.25C18.5858 9.25 18.25 9.58579 18.25 10C18.25 11.6576 17.5915 13.2473 16.4194 14.4194C15.2473 15.5915 13.6576 16.25 12 16.25C10.3424 16.25 8.75268 15.5915 7.58058 14.4194C6.40848 13.2473 5.75 11.6576 5.75 10Z" fill="#30ABA9"/>
</svg>
