<svg width="20" height="20" viewBox="0 0 20 20" fill="none" xmlns="http://www.w3.org/2000/svg">
<path fill-rule="evenodd" clip-rule="evenodd" d="M2.70825 9.99996C2.70825 9.19454 3.36117 8.54163 4.16659 8.54163C4.972 8.54163 5.62492 9.19454 5.62492 9.99996C5.62492 10.8054 4.972 11.4583 4.16659 11.4583C3.36117 11.4583 2.70825 10.8054 2.70825 9.99996Z" fill="#0F172A"/>
<path fill-rule="evenodd" clip-rule="evenodd" d="M8.54159 9.99996C8.54159 9.19454 9.1945 8.54163 9.99992 8.54163C10.8053 8.54163 11.4583 9.19454 11.4583 9.99996C11.4583 10.8054 10.8053 11.4583 9.99992 11.4583C9.1945 11.4583 8.54159 10.8054 8.54159 9.99996Z" fill="#0F172A"/>
<path fill-rule="evenodd" clip-rule="evenodd" d="M15.8333 8.54163C15.0278 8.54163 14.3749 9.19454 14.3749 9.99996C14.3749 10.8054 15.0278 11.4583 15.8333 11.4583C16.6387 11.4583 17.2916 10.8054 17.2916 9.99996C17.2916 9.19454 16.6387 8.54163 15.8333 8.54163Z" fill="#0F172A"/>
</svg>
